<svg xmlns="http://www.w3.org/2000/svg" xmlns:xlink="http://www.w3.org/1999/xlink" width="50" zoomAndPan="magnify" viewBox="0 0 37.5 37.499999" height="50" preserveAspectRatio="xMidYMid meet" version="1.0"><defs><clipPath id="43fabb4566"><path d="M 21.214844 31.558594 L 24.621094 31.558594 L 24.621094 37.007812 L 21.214844 37.007812 Z M 21.214844 31.558594 " clip-rule="nonzero"/></clipPath><clipPath id="a23354c0ff"><path d="M 12.457031 31.558594 L 15.863281 31.558594 L 15.863281 37.007812 L 12.457031 37.007812 Z M 12.457031 31.558594 " clip-rule="nonzero"/></clipPath><clipPath id="f3ba736c07"><path d="M 1.609375 0 L 35.628906 0 L 35.628906 22.304688 L 1.609375 22.304688 Z M 1.609375 0 " clip-rule="nonzero"/></clipPath></defs><g clip-path="url(#43fabb4566)"><path fill="#f46f18" d="M 24.554688 35.625 C 24.542969 35.539062 24.261719 35.511719 23.929688 35.425781 C 23.59375 35.351562 23.214844 35.207031 22.953125 35.074219 C 22.699219 34.953125 22.5625 34.882812 22.460938 34.871094 C 22.40625 34.691406 22.359375 34.507812 22.324219 34.328125 C 22.242188 33.917969 22.214844 33.515625 22.214844 33.175781 C 22.214844 32.496094 22.285156 32.136719 22.261719 31.925781 C 22.246094 31.71875 22.15625 31.660156 22.050781 31.625 C 21.941406 31.59375 21.839844 31.582031 21.707031 31.773438 C 21.582031 31.96875 21.402344 32.378906 21.402344 33.179688 C 21.402344 33.578125 21.460938 34.046875 21.597656 34.507812 C 21.652344 34.695312 21.722656 34.882812 21.800781 35.0625 C 21.71875 35.117188 21.625 35.21875 21.507812 35.417969 C 21.433594 35.546875 21.355469 35.707031 21.300781 35.890625 C 21.246094 36.070312 21.21875 36.265625 21.230469 36.441406 C 21.234375 36.617188 21.28125 36.773438 21.335938 36.871094 C 21.386719 36.972656 21.449219 37.015625 21.488281 37.003906 C 21.566406 36.976562 21.566406 36.746094 21.65625 36.488281 C 21.734375 36.226562 21.902344 35.945312 22.035156 35.71875 C 22.054688 35.6875 22.074219 35.65625 22.089844 35.625 C 22.121094 35.675781 22.152344 35.722656 22.183594 35.769531 C 22.421875 36.132812 22.6875 36.414062 22.898438 36.585938 C 23.113281 36.757812 23.269531 36.828125 23.304688 36.792969 C 23.347656 36.75 23.269531 36.601562 23.140625 36.382812 C 23.03125 36.191406 22.890625 35.941406 22.757812 35.652344 C 23.078125 35.796875 23.527344 35.882812 23.894531 35.855469 C 24.289062 35.832031 24.570312 35.703125 24.554688 35.625 " fill-opacity="1" fill-rule="nonzero"/></g><g clip-path="url(#a23354c0ff)"><path fill="#f46f18" d="M 15.730469 35.890625 C 15.675781 35.707031 15.601562 35.546875 15.523438 35.417969 C 15.40625 35.21875 15.3125 35.117188 15.234375 35.0625 C 15.3125 34.882812 15.378906 34.695312 15.433594 34.507812 C 15.570312 34.046875 15.628906 33.578125 15.628906 33.179688 C 15.628906 32.378906 15.449219 31.96875 15.324219 31.773438 C 15.191406 31.582031 15.089844 31.59375 14.980469 31.625 C 14.875 31.660156 14.785156 31.71875 14.769531 31.925781 C 14.75 32.136719 14.820312 32.496094 14.816406 33.175781 C 14.816406 33.515625 14.789062 33.917969 14.707031 34.328125 C 14.671875 34.507812 14.625 34.691406 14.574219 34.871094 C 14.472656 34.882812 14.332031 34.953125 14.082031 35.074219 C 13.816406 35.207031 13.4375 35.351562 13.101562 35.425781 C 12.769531 35.511719 12.488281 35.539062 12.476562 35.625 C 12.460938 35.703125 12.742188 35.832031 13.136719 35.855469 C 13.503906 35.882812 13.953125 35.796875 14.273438 35.652344 C 14.140625 35.941406 14 36.191406 13.890625 36.382812 C 13.761719 36.601562 13.683594 36.75 13.726562 36.792969 C 13.761719 36.828125 13.917969 36.757812 14.132812 36.585938 C 14.34375 36.414062 14.609375 36.132812 14.847656 35.769531 C 14.882812 35.722656 14.910156 35.675781 14.941406 35.625 C 14.957031 35.65625 14.976562 35.6875 14.996094 35.71875 C 15.132812 35.945312 15.296875 36.226562 15.375 36.488281 C 15.464844 36.746094 15.464844 36.976562 15.546875 37.003906 C 15.585938 37.015625 15.644531 36.972656 15.699219 36.871094 C 15.75 36.773438 15.796875 36.617188 15.804688 36.441406 C 15.8125 36.265625 15.785156 36.070312 15.730469 35.890625 " fill-opacity="1" fill-rule="nonzero"/></g><path fill="#487a50" d="M 24.324219 25.179688 C 23.972656 25.339844 27.273438 31.546875 29.269531 30.84375 C 30.472656 30.417969 28.734375 27.367188 28.734375 27.367188 C 28.734375 27.367188 31.285156 29.929688 32.109375 29.121094 C 32.941406 28.308594 30.625 25.597656 30.625 25.597656 C 30.625 25.597656 33.335938 27.988281 33.761719 26.769531 C 34.589844 24.417969 26.972656 20.953125 25.675781 22.46875 L 24.324219 25.179688 " fill-opacity="1" fill-rule="nonzero"/><path fill="#487a50" d="M 12.722656 25.121094 C 13.078125 25.28125 9.777344 31.488281 7.78125 30.785156 C 6.578125 30.359375 8.3125 27.3125 8.3125 27.3125 C 8.3125 27.3125 5.765625 29.871094 4.941406 29.066406 C 4.105469 28.25 6.425781 25.539062 6.425781 25.539062 C 6.425781 25.539062 3.714844 27.929688 3.289062 26.714844 C 2.460938 24.359375 10.078125 20.894531 11.375 22.410156 L 12.722656 25.121094 " fill-opacity="1" fill-rule="nonzero"/><path fill="#acbb23" d="M 26.835938 25.539062 C 26.851562 31.214844 23.085938 33.859375 18.230469 33.6875 C 13.375 33.859375 9.609375 31.214844 9.625 25.539062 C 9.609375 19.859375 13.375 17.214844 18.230469 17.386719 C 23.085938 17.214844 26.851562 19.859375 26.835938 25.539062 " fill-opacity="1" fill-rule="nonzero"/><g clip-path="url(#f3ba736c07)"><path fill="#487a50" d="M 35.511719 0 C 33.339844 1.476562 30.40625 3.441406 28.660156 2.988281 C 28.476562 2.898438 28.289062 2.808594 28.097656 2.726562 C 25.652344 1.667969 22.375 1.234375 18.621094 1.203125 C 14.867188 1.234375 11.585938 1.667969 9.144531 2.726562 C 9.140625 2.726562 9.140625 2.726562 9.140625 2.726562 C 8.949219 2.8125 8.761719 2.898438 8.582031 2.988281 C 6.835938 3.445312 3.902344 1.476562 1.730469 0 C 1.207031 2.589844 2.457031 5.792969 4.167969 8.308594 C 3.816406 9.515625 3.652344 10.851562 3.628906 12.285156 C 3.6875 15.882812 4.648438 18.890625 7.195312 20.730469 C 9.679688 22.613281 13.648438 22.179688 18.515625 22.222656 C 23.386719 22.179688 27.558594 22.613281 30.046875 20.730469 C 32.589844 18.890625 33.554688 15.882812 33.613281 12.285156 C 33.589844 10.851562 33.421875 9.515625 33.070312 8.308594 C 34.78125 5.792969 36.03125 2.589844 35.511719 0 " fill-opacity="1" fill-rule="nonzero"/></g><path fill="#fddb95" d="M 25.246094 6.140625 C 21.902344 6.140625 19.09375 8.347656 18.296875 11.332031 C 17.496094 8.347656 14.6875 6.140625 11.347656 6.140625 C 7.382812 6.140625 4.167969 9.242188 4.167969 13.070312 C 4.167969 16.894531 7.382812 20 11.347656 20 C 14.6875 20 17.496094 17.792969 18.296875 14.808594 C 19.09375 17.792969 21.902344 20 25.246094 20 C 29.210938 20 32.421875 16.894531 32.421875 13.070312 C 32.421875 9.242188 29.210938 6.140625 25.246094 6.140625 " fill-opacity="1" fill-rule="nonzero"/><path fill="#f57823" d="M 18.230469 19.25 L 16.628906 16.113281 C 16.628906 14.375 19.832031 14.375 19.832031 16.113281 L 18.230469 19.25 " fill-opacity="1" fill-rule="nonzero"/><path fill="#ffffff" d="M 15.492188 13.78125 C 15.492188 16.191406 13.53125 18.144531 11.117188 18.144531 C 8.699219 18.144531 6.738281 16.191406 6.738281 13.78125 C 6.738281 11.371094 8.699219 9.417969 11.117188 9.417969 C 13.53125 9.417969 15.492188 11.371094 15.492188 13.78125 " fill-opacity="1" fill-rule="nonzero"/><path fill="#ce8e54" d="M 14.460938 13.78125 C 14.460938 15.625 12.960938 17.117188 11.117188 17.117188 C 9.269531 17.117188 7.773438 15.625 7.773438 13.78125 C 7.773438 11.941406 9.269531 10.449219 11.117188 10.449219 C 12.960938 10.449219 14.460938 11.941406 14.460938 13.78125 " fill-opacity="1" fill-rule="nonzero"/><path fill="#100f0d" d="M 13.46875 13.78125 C 13.46875 15.078125 12.414062 16.128906 11.117188 16.128906 C 9.816406 16.128906 8.761719 15.078125 8.761719 13.78125 C 8.761719 12.484375 9.816406 11.4375 11.117188 11.4375 C 12.414062 11.4375 13.46875 12.484375 13.46875 13.78125 " fill-opacity="1" fill-rule="nonzero"/><path fill="#ffffff" d="M 13.558594 12.417969 C 13.558594 12.734375 13.300781 12.992188 12.980469 12.992188 C 12.660156 12.992188 12.402344 12.734375 12.402344 12.417969 C 12.402344 12.101562 12.660156 11.84375 12.980469 11.84375 C 13.300781 11.84375 13.558594 12.101562 13.558594 12.417969 " fill-opacity="1" fill-rule="nonzero"/><path fill="#ffffff" d="M 29.722656 13.78125 C 29.722656 16.191406 27.765625 18.144531 25.347656 18.144531 C 22.929688 18.144531 20.96875 16.191406 20.96875 13.78125 C 20.96875 11.371094 22.929688 9.417969 25.347656 9.417969 C 27.765625 9.417969 29.722656 11.371094 29.722656 13.78125 " fill-opacity="1" fill-rule="nonzero"/><path fill="#ce8e54" d="M 28.691406 13.78125 C 28.691406 15.625 27.195312 17.117188 25.347656 17.117188 C 23.5 17.117188 22.003906 15.625 22.003906 13.78125 C 22.003906 11.941406 23.5 10.449219 25.347656 10.449219 C 27.195312 10.449219 28.691406 11.941406 28.691406 13.78125 " fill-opacity="1" fill-rule="nonzero"/><path fill="#100f0d" d="M 27.699219 13.78125 C 27.699219 15.078125 26.644531 16.128906 25.347656 16.128906 C 24.046875 16.128906 22.996094 15.078125 22.996094 13.78125 C 22.996094 12.484375 24.046875 11.4375 25.347656 11.4375 C 26.644531 11.4375 27.699219 12.484375 27.699219 13.78125 " fill-opacity="1" fill-rule="nonzero"/><path fill="#ffffff" d="M 27.789062 12.417969 C 27.789062 12.734375 27.53125 12.992188 27.210938 12.992188 C 26.890625 12.992188 26.632812 12.734375 26.632812 12.417969 C 26.632812 12.101562 26.890625 11.84375 27.210938 11.84375 C 27.53125 11.84375 27.789062 12.101562 27.789062 12.417969 " fill-opacity="1" fill-rule="nonzero"/><path fill="#487a50" d="M 23.769531 27.863281 C 23.792969 27.878906 23.710938 28.050781 23.472656 28.242188 C 23.414062 28.289062 23.347656 28.335938 23.269531 28.378906 C 23.195312 28.425781 23.105469 28.460938 23.015625 28.5 C 22.828125 28.570312 22.609375 28.617188 22.378906 28.628906 C 22.144531 28.636719 21.925781 28.605469 21.734375 28.550781 C 21.636719 28.515625 21.546875 28.488281 21.46875 28.445312 C 21.386719 28.410156 21.316406 28.367188 21.253906 28.324219 C 21.003906 28.152344 20.910156 27.988281 20.933594 27.96875 C 20.960938 27.941406 21.097656 28.054688 21.34375 28.171875 C 21.40625 28.199219 21.472656 28.230469 21.550781 28.253906 C 21.625 28.285156 21.707031 28.300781 21.792969 28.324219 C 21.96875 28.363281 22.164062 28.382812 22.367188 28.378906 C 22.574219 28.367188 22.765625 28.332031 22.9375 28.28125 C 23.023438 28.253906 23.105469 28.230469 23.175781 28.191406 C 23.25 28.164062 23.3125 28.128906 23.375 28.09375 C 23.609375 27.960938 23.738281 27.835938 23.769531 27.863281 " fill-opacity="1" fill-rule="nonzero"/><path fill="#487a50" d="M 19.648438 27.863281 C 19.671875 27.878906 19.589844 28.050781 19.355469 28.242188 C 19.296875 28.289062 19.230469 28.335938 19.148438 28.378906 C 19.074219 28.425781 18.984375 28.460938 18.894531 28.5 C 18.707031 28.570312 18.488281 28.617188 18.257812 28.628906 C 18.027344 28.636719 17.804688 28.605469 17.613281 28.550781 C 17.519531 28.515625 17.425781 28.488281 17.347656 28.445312 C 17.265625 28.410156 17.195312 28.367188 17.132812 28.324219 C 16.886719 28.152344 16.789062 27.988281 16.8125 27.96875 C 16.839844 27.941406 16.976562 28.054688 17.222656 28.171875 C 17.285156 28.199219 17.351562 28.230469 17.429688 28.253906 C 17.503906 28.285156 17.585938 28.300781 17.671875 28.324219 C 17.847656 28.363281 18.042969 28.382812 18.25 28.378906 C 18.453125 28.367188 18.648438 28.332031 18.816406 28.28125 C 18.902344 28.253906 18.984375 28.230469 19.054688 28.191406 C 19.128906 28.164062 19.195312 28.128906 19.253906 28.09375 C 19.488281 27.960938 19.617188 27.835938 19.648438 27.863281 " fill-opacity="1" fill-rule="nonzero"/><path fill="#487a50" d="M 15.527344 27.863281 C 15.550781 27.878906 15.46875 28.050781 15.234375 28.242188 C 15.175781 28.289062 15.109375 28.335938 15.03125 28.378906 C 14.953125 28.425781 14.867188 28.460938 14.773438 28.5 C 14.585938 28.570312 14.367188 28.617188 14.136719 28.628906 C 13.90625 28.636719 13.683594 28.605469 13.492188 28.550781 C 13.398438 28.515625 13.308594 28.488281 13.226562 28.445312 C 13.148438 28.410156 13.078125 28.367188 13.015625 28.324219 C 12.765625 28.152344 12.671875 27.988281 12.691406 27.96875 C 12.722656 27.941406 12.859375 28.054688 13.105469 28.171875 C 13.164062 28.199219 13.234375 28.230469 13.308594 28.253906 C 13.382812 28.285156 13.464844 28.300781 13.550781 28.324219 C 13.726562 28.363281 13.921875 28.382812 14.128906 28.378906 C 14.332031 28.367188 14.527344 28.332031 14.699219 28.28125 C 14.78125 28.253906 14.863281 28.230469 14.933594 28.191406 C 15.007812 28.164062 15.074219 28.128906 15.132812 28.09375 C 15.371094 27.960938 15.496094 27.835938 15.527344 27.863281 " fill-opacity="1" fill-rule="nonzero"/><path fill="#487a50" d="M 21.605469 26.058594 C 21.628906 26.074219 21.546875 26.246094 21.3125 26.4375 C 21.253906 26.484375 21.1875 26.53125 21.105469 26.574219 C 21.03125 26.621094 20.945312 26.65625 20.851562 26.695312 C 20.664062 26.765625 20.445312 26.8125 20.214844 26.824219 C 19.984375 26.832031 19.761719 26.800781 19.570312 26.746094 C 19.476562 26.710938 19.382812 26.683594 19.304688 26.640625 C 19.222656 26.605469 19.152344 26.5625 19.089844 26.519531 C 18.84375 26.347656 18.746094 26.183594 18.769531 26.164062 C 18.796875 26.136719 18.933594 26.25 19.179688 26.367188 C 19.242188 26.394531 19.308594 26.425781 19.386719 26.449219 C 19.460938 26.480469 19.542969 26.496094 19.628906 26.519531 C 19.804688 26.558594 20 26.578125 20.207031 26.574219 C 20.410156 26.5625 20.605469 26.527344 20.773438 26.476562 C 20.859375 26.449219 20.941406 26.425781 21.011719 26.390625 C 21.085938 26.359375 21.152344 26.324219 21.210938 26.289062 C 21.445312 26.15625 21.574219 26.03125 21.605469 26.058594 " fill-opacity="1" fill-rule="nonzero"/><path fill="#487a50" d="M 25.71875 26.058594 C 25.738281 26.074219 25.65625 26.246094 25.421875 26.4375 C 25.363281 26.484375 25.296875 26.53125 25.21875 26.574219 C 25.144531 26.621094 25.054688 26.65625 24.964844 26.695312 C 24.773438 26.765625 24.558594 26.8125 24.328125 26.824219 C 24.09375 26.832031 23.875 26.800781 23.683594 26.746094 C 23.585938 26.710938 23.496094 26.683594 23.417969 26.640625 C 23.335938 26.605469 23.265625 26.5625 23.203125 26.519531 C 22.953125 26.347656 22.859375 26.183594 22.882812 26.164062 C 22.910156 26.136719 23.046875 26.25 23.292969 26.367188 C 23.355469 26.394531 23.421875 26.425781 23.5 26.449219 C 23.570312 26.480469 23.65625 26.496094 23.742188 26.519531 C 23.914062 26.558594 24.109375 26.578125 24.316406 26.574219 C 24.523438 26.5625 24.714844 26.527344 24.886719 26.476562 C 24.96875 26.449219 25.050781 26.425781 25.125 26.390625 C 25.199219 26.359375 25.261719 26.324219 25.320312 26.289062 C 25.558594 26.15625 25.6875 26.03125 25.71875 26.058594 " fill-opacity="1" fill-rule="nonzero"/><path fill="#487a50" d="M 17.484375 26.058594 C 17.507812 26.074219 17.425781 26.246094 17.191406 26.4375 C 17.132812 26.484375 17.066406 26.53125 16.988281 26.574219 C 16.910156 26.621094 16.824219 26.65625 16.730469 26.695312 C 16.542969 26.765625 16.324219 26.8125 16.09375 26.824219 C 15.863281 26.832031 15.644531 26.800781 15.449219 26.746094 C 15.355469 26.710938 15.265625 26.683594 15.1875 26.640625 C 15.105469 26.605469 15.035156 26.5625 14.972656 26.519531 C 14.722656 26.347656 14.628906 26.183594 14.648438 26.164062 C 14.679688 26.136719 14.816406 26.25 15.0625 26.367188 C 15.121094 26.394531 15.191406 26.425781 15.265625 26.449219 C 15.339844 26.480469 15.421875 26.496094 15.507812 26.519531 C 15.683594 26.558594 15.878906 26.578125 16.085938 26.574219 C 16.289062 26.5625 16.484375 26.527344 16.65625 26.476562 C 16.738281 26.449219 16.820312 26.425781 16.890625 26.390625 C 16.964844 26.359375 17.03125 26.324219 17.089844 26.289062 C 17.328125 26.15625 17.453125 26.03125 17.484375 26.058594 " fill-opacity="1" fill-rule="nonzero"/><path fill="#487a50" d="M 13.363281 26.058594 C 13.386719 26.074219 13.304688 26.246094 13.070312 26.4375 C 13.011719 26.484375 12.945312 26.53125 12.867188 26.574219 C 12.792969 26.621094 12.703125 26.65625 12.609375 26.695312 C 12.421875 26.765625 12.207031 26.8125 11.972656 26.824219 C 11.742188 26.832031 11.523438 26.800781 11.328125 26.746094 C 11.234375 26.710938 11.144531 26.683594 11.066406 26.640625 C 10.984375 26.605469 10.914062 26.5625 10.851562 26.519531 C 10.601562 26.347656 10.507812 26.183594 10.527344 26.164062 C 10.558594 26.136719 10.695312 26.25 10.941406 26.367188 C 11.003906 26.394531 11.070312 26.425781 11.144531 26.449219 C 11.21875 26.480469 11.304688 26.496094 11.390625 26.519531 C 11.5625 26.558594 11.757812 26.578125 11.964844 26.574219 C 12.171875 26.5625 12.363281 26.527344 12.535156 26.476562 C 12.617188 26.449219 12.699219 26.425781 12.769531 26.390625 C 12.847656 26.359375 12.910156 26.324219 12.96875 26.289062 C 13.207031 26.15625 13.335938 26.03125 13.363281 26.058594 " fill-opacity="1" fill-rule="nonzero"/><path fill="#487a50" d="M 21.707031 30.128906 C 21.730469 30.144531 21.648438 30.316406 21.414062 30.507812 C 21.355469 30.554688 21.289062 30.601562 21.210938 30.644531 C 21.136719 30.691406 21.046875 30.726562 20.953125 30.765625 C 20.765625 30.835938 20.550781 30.882812 20.316406 30.894531 C 20.085938 30.902344 19.867188 30.867188 19.671875 30.816406 C 19.578125 30.78125 19.488281 30.753906 19.410156 30.710938 C 19.328125 30.675781 19.257812 30.632812 19.195312 30.589844 C 18.945312 30.417969 18.851562 30.253906 18.871094 30.234375 C 18.902344 30.207031 19.039062 30.320312 19.285156 30.4375 C 19.347656 30.464844 19.414062 30.496094 19.488281 30.519531 C 19.5625 30.550781 19.648438 30.566406 19.734375 30.589844 C 19.90625 30.628906 20.101562 30.648438 20.308594 30.644531 C 20.515625 30.632812 20.707031 30.597656 20.878906 30.546875 C 20.960938 30.519531 21.042969 30.492188 21.113281 30.457031 C 21.1875 30.429688 21.253906 30.394531 21.3125 30.359375 C 21.550781 30.226562 21.675781 30.101562 21.707031 30.128906 " fill-opacity="1" fill-rule="nonzero"/><path fill="#487a50" d="M 17.589844 30.128906 C 17.609375 30.144531 17.527344 30.316406 17.292969 30.507812 C 17.234375 30.554688 17.167969 30.601562 17.089844 30.644531 C 17.015625 30.691406 16.925781 30.726562 16.832031 30.765625 C 16.644531 30.835938 16.429688 30.882812 16.199219 30.894531 C 15.964844 30.902344 15.746094 30.867188 15.554688 30.816406 C 15.457031 30.78125 15.367188 30.753906 15.289062 30.710938 C 15.207031 30.675781 15.136719 30.632812 15.074219 30.589844 C 14.824219 30.417969 14.730469 30.253906 14.753906 30.234375 C 14.78125 30.207031 14.917969 30.320312 15.164062 30.4375 C 15.226562 30.464844 15.292969 30.496094 15.371094 30.519531 C 15.441406 30.550781 15.527344 30.566406 15.613281 30.589844 C 15.785156 30.628906 15.980469 30.648438 16.1875 30.644531 C 16.394531 30.632812 16.585938 30.597656 16.757812 30.546875 C 16.839844 30.519531 16.921875 30.492188 16.996094 30.457031 C 17.070312 30.429688 17.132812 30.394531 17.191406 30.359375 C 17.429688 30.226562 17.558594 30.101562 17.589844 30.128906 " fill-opacity="1" fill-rule="nonzero"/></svg>